<svg id="SvgjsSvg1001" width="288" height="288" xmlns="http://www.w3.org/2000/svg" version="1.1" xmlns:xlink="http://www.w3.org/1999/xlink" xmlns:svgjs="http://svgjs.com/svgjs"><defs id="SvgjsDefs1002"></defs><g id="SvgjsG1008"><svg xmlns="http://www.w3.org/2000/svg" xmlns:xlink="http://www.w3.org/1999/xlink" enable-background="new 0 0 450 450" viewBox="0 0 450 450" width="288" height="288"><polygon fill="#000000" points="233.382 343.98 256.461 343.98 345.028 292.775 267.278 246.906 211.711 277.424" opacity=".3" class="colorcfc4b8 svgShape"></polygon><polygon fill="#e8e8e8" points="148.729 273.151 152.857 270.753 158.454 273.984 154.326 276.383" class="colore4e3ee svgShape"></polygon><polygon fill="#cccccc" points="159.304 271.354 163.432 268.955 159.208 275.855 155.081 278.254" class="colorb7b6e3 svgShape"></polygon><polygon fill="#91d691" points="169.068 275.559 173.196 273.16 173.192 274.591 169.065 276.989" class="color919dd6 svgShape"></polygon><polygon fill="#e8e8e8" points="158.55 269.485 162.677 267.087 173.196 273.16 169.068 275.559" class="colore4e3ee svgShape"></polygon><polygon fill="#91d691" points="169.068 275.559 169.065 276.989 159.304 271.354 155.081 278.254 148.725 274.584 148.729 273.151 154.326 276.383 158.55 269.485" class="color919dd6 svgShape"></polygon><polygon fill="#e8e8e8" points="164.06 264.42 168.187 262.022 173.783 265.253 169.656 267.652" class="colore4e3ee svgShape"></polygon><polygon fill="#cccccc" points="174.635 262.623 178.762 260.224 174.539 267.124 170.411 269.522" class="colorb7b6e3 svgShape"></polygon><polygon fill="#91d691" points="184.399 266.827 188.525 264.429 188.521 265.859 184.394 268.258" class="color919dd6 svgShape"></polygon><polygon fill="#e8e8e8" points="173.879 260.754 178.007 258.355 188.525 264.429 184.399 266.827" class="colore4e3ee svgShape"></polygon><polygon fill="#91d691" points="184.399 266.827 184.394 268.258 174.635 262.623 170.411 269.522 164.055 265.853 164.06 264.42 169.656 267.652 173.879 260.754" class="color919dd6 svgShape"></polygon><polygon fill="#e8e8e8" points="178.741 255.675 182.868 253.276 188.465 256.508 184.338 258.906" class="colore4e3ee svgShape"></polygon><polygon fill="#cccccc" points="189.316 253.878 193.443 251.479 189.22 258.379 185.093 260.777" class="colorb7b6e3 svgShape"></polygon><polygon fill="#91d691" points="199.08 258.082 203.207 255.684 203.203 257.114 199.076 259.513" class="color919dd6 svgShape"></polygon><polygon fill="#e8e8e8" points="188.561 252.009 192.688 249.61 203.207 255.684 199.08 258.082" class="colore4e3ee svgShape"></polygon><polygon fill="#91d691" points="199.08 258.082 199.076 259.513 189.316 253.878 185.093 260.777 178.737 257.107 178.741 255.675 184.338 258.906 188.561 252.009" class="color919dd6 svgShape"></polygon><g><polygon fill="#e8e8e8" points="133.575 282.648 137.702 280.25 143.299 283.481 139.172 285.879" class="colore4e3ee svgShape"></polygon><polygon fill="#cccccc" points="144.15 280.851 148.277 278.453 144.054 285.352 139.927 287.75" class="colorb7b6e3 svgShape"></polygon><polygon fill="#91d691" points="153.914 285.055 158.042 282.657 158.037 284.087 153.91 286.486" class="color919dd6 svgShape"></polygon><polygon fill="#e8e8e8" points="143.395 278.982 147.523 276.583 158.042 282.657 153.914 285.055" class="colore4e3ee svgShape"></polygon><polygon fill="#91d691" points="153.914 285.055 153.91 286.486 144.15 280.851 139.927 287.75 133.571 284.081 133.575 282.648 139.172 285.879 143.395 278.982" class="color919dd6 svgShape"></polygon></g><g><polygon fill="#e8e8e8" points="195.062 246.453 199.189 244.054 204.786 247.285 200.659 249.684" class="colore4e3ee svgShape"></polygon><polygon fill="#cccccc" points="205.637 244.656 209.764 242.257 205.541 249.156 201.414 251.555" class="colorb7b6e3 svgShape"></polygon><polygon fill="#91d691" points="215.401 248.859 219.528 246.461 219.524 247.892 215.397 250.29" class="color919dd6 svgShape"></polygon><polygon fill="#e8e8e8" points="204.882 242.787 209.009 240.388 219.528 246.461 215.401 248.859" class="colore4e3ee svgShape"></polygon><polygon fill="#91d691" points="215.401 248.859 215.397 250.29 205.637 244.656 201.414 251.555 195.058 247.885 195.062 246.453 200.659 249.684 204.882 242.787" class="color919dd6 svgShape"></polygon></g><g><polygon fill="#e8e8e8" points="210.747 237.547 214.874 235.148 220.471 238.38 216.344 240.778" class="colore4e3ee svgShape"></polygon><polygon fill="#cccccc" points="221.322 235.75 225.449 233.351 221.226 240.251 217.099 242.649" class="colorb7b6e3 svgShape"></polygon><polygon fill="#91d691" points="231.087 239.954 235.214 237.555 235.21 238.986 231.082 241.385" class="color919dd6 svgShape"></polygon><polygon fill="#e8e8e8" points="220.567 233.881 224.695 231.482 235.214 237.555 231.087 239.954" class="colore4e3ee svgShape"></polygon><polygon fill="#91d691" points="231.087 239.954 231.082 241.385 221.322 235.75 217.099 242.649 210.743 238.98 210.747 237.547 216.344 240.778 220.567 233.881" class="color919dd6 svgShape"></polygon></g><g><polygon fill="#e8e8e8" points="316.738 273.365 312.611 270.967 307.014 274.198 311.142 276.597" class="colore4e3ee svgShape"></polygon><polygon fill="#cccccc" points="306.164 271.568 302.036 269.17 306.259 276.069 310.387 278.467" class="colorb7b6e3 svgShape"></polygon><polygon fill="#91d691" points="296.399 275.772 292.272 273.374 292.277 274.804 296.403 277.203" class="color919dd6 svgShape"></polygon><polygon fill="#e8e8e8" points="306.918 269.699 302.791 267.301 292.272 273.374 296.399 275.772" class="colore4e3ee svgShape"></polygon><polygon fill="#91d691" points="296.399 275.772 296.403 277.203 306.164 271.568 310.387 278.467 316.742 274.798 316.738 273.365 311.142 276.597 306.918 269.699" class="color919dd6 svgShape"></polygon><polygon fill="#e8e8e8" points="301.408 264.634 297.281 262.236 291.685 265.467 295.812 267.865" class="colore4e3ee svgShape"></polygon><polygon fill="#cccccc" points="290.833 262.837 286.706 260.438 290.929 267.338 295.056 269.736" class="colorb7b6e3 svgShape"></polygon><polygon fill="#91d691" points="281.069 267.041 276.942 264.643 276.946 266.073 281.073 268.472" class="color919dd6 svgShape"></polygon><polygon fill="#e8e8e8" points="291.589 260.968 287.461 258.57 276.942 264.643 281.069 267.041" class="colore4e3ee svgShape"></polygon><polygon fill="#91d691" points="281.069 267.041 281.073 268.472 290.833 262.837 295.056 269.736 301.413 266.067 301.408 264.634 295.812 267.865 291.589 260.968" class="color919dd6 svgShape"></polygon><g fill="none"><polygon fill="#e8e8e8" points="286.727 255.889 282.6 253.491 277.003 256.722 281.13 259.12" class="colore4e3ee svgShape"></polygon><polygon fill="#cccccc" points="276.152 254.092 272.025 251.693 276.248 258.593 280.375 260.991" class="colorb7b6e3 svgShape"></polygon><polygon fill="#91d691" points="266.388 258.296 262.261 255.898 262.265 257.328 266.392 259.726" class="color919dd6 svgShape"></polygon><polygon fill="#e8e8e8" points="276.907 252.223 272.78 249.824 262.261 255.898 266.388 258.296" class="colore4e3ee svgShape"></polygon><polygon fill="#91d691" points="266.388 258.296 266.392 259.726 276.152 254.092 280.375 260.991 286.731 257.322 286.727 255.889 281.13 259.12 276.907 252.223" class="color919dd6 svgShape"></polygon></g><g fill="none"><polygon fill="#e8e8e8" points="331.893 282.862 327.766 280.463 322.169 283.695 326.296 286.094" class="colore4e3ee svgShape"></polygon><polygon fill="#cccccc" points="321.318 281.065 317.191 278.667 321.414 285.566 325.541 287.965" class="colorb7b6e3 svgShape"></polygon><polygon fill="#91d691" points="311.554 285.269 307.426 282.871 307.431 284.302 311.558 286.7" class="color919dd6 svgShape"></polygon><polygon fill="#e8e8e8" points="322.073 279.196 317.946 276.798 307.426 282.871 311.554 285.269" class="colore4e3ee svgShape"></polygon><polygon fill="#91d691" points="311.554 285.269 311.558 286.7 321.318 281.065 325.541 287.965 331.897 284.295 331.893 282.862 326.296 286.094 322.073 279.196" class="color919dd6 svgShape"></polygon></g><g fill="none"><polygon fill="#e8e8e8" points="270.406 246.667 266.279 244.268 260.682 247.499 264.81 249.898" class="colore4e3ee svgShape"></polygon><polygon fill="#cccccc" points="259.831 244.869 255.704 242.471 259.927 249.37 264.054 251.769" class="colorb7b6e3 svgShape"></polygon><polygon fill="#91d691" points="250.067 249.073 245.94 246.675 245.943 248.106 250.071 250.504" class="color919dd6 svgShape"></polygon><polygon fill="#e8e8e8" points="260.586 243.001 256.458 240.602 245.94 246.675 250.067 249.073" class="colore4e3ee svgShape"></polygon><polygon fill="#91d691" points="250.067 249.073 250.071 250.504 259.831 244.869 264.054 251.769 270.41 248.099 270.406 246.667 264.81 249.898 260.586 243.001" class="color919dd6 svgShape"></polygon></g><g fill="none"><polygon fill="#e8e8e8" points="254.721 237.761 250.594 235.362 244.997 238.594 249.124 240.992" class="colore4e3ee svgShape"></polygon><polygon fill="#cccccc" points="244.146 235.963 240.018 233.565 244.242 240.465 248.369 242.863" class="colorb7b6e3 svgShape"></polygon><polygon fill="#91d691" points="234.382 240.168 230.254 237.769 230.258 239.2 234.385 241.599" class="color919dd6 svgShape"></polygon><polygon fill="#e8e8e8" points="244.9 234.095 240.773 231.696 230.254 237.769 234.382 240.168" class="colore4e3ee svgShape"></polygon><polygon fill="#91d691" points="234.382 240.168 234.385 241.599 244.146 235.963 248.369 242.863 254.725 239.193 254.721 237.761 249.124 240.992 244.9 234.095" class="color919dd6 svgShape"></polygon></g></g><g><polygon fill="#2af312" points="321.867 282.692 321.839 292.576 233.387 343.979 233.415 334.095" class="color12b0f3 svgShape"></polygon><polygon fill="#31f213" points="233.415 334.095 233.387 343.979 144.357 292.577 144.385 282.693" class="color1393f2 svgShape"></polygon><polygon fill="#59e643" points="321.867 282.692 233.415 334.095 144.385 282.693 232.836 231.291" class="color05d4f5 svgShape"></polygon></g><g><polygon fill="#e2e2e2" points="300.667 280.186 300.652 285.128 233.325 324.254 233.339 319.312" class="colord4d5f0 svgShape"></polygon><polygon fill="#d7d7d7" points="233.339 319.312 233.325 324.254 165.557 285.129 165.571 280.186" class="colorc4c3ec svgShape"></polygon><polygon fill="#ffffff" points="300.667 280.186 233.339 319.312 165.571 280.186 232.899 241.06" class="colorfff svgShape"></polygon></g><g><polygon fill="#d7d7d7" points="137.122 308.186 132.995 305.787 137.165 294.044 141.293 296.442" class="colorc4c3ec svgShape"></polygon><polygon fill="#e8e8e8" points="141.293 296.442 137.165 294.044 147.684 287.971 151.812 290.369" class="colore4e3ee svgShape"></polygon><polygon fill="#e8e8e8" points="131.523 311.418 127.396 309.02 132.995 305.787 137.122 308.186" class="colore4e3ee svgShape"></polygon><polygon fill="#cccccc" points="131.527 312.851 127.4 310.453 127.396 309.02 131.523 311.418" class="colorb7b6e3 svgShape"></polygon><polygon fill="#91d691" points="151.812 290.369 151.816 291.8 142.054 297.436 137.885 309.181 131.527 312.851 131.523 311.418 137.122 308.186 141.293 296.442" class="color919dd6 svgShape"></polygon><polygon fill="#d7d7d7" points="152.64 317.068 148.513 314.669 152.684 302.926 156.81 305.324" class="colorc4c3ec svgShape"></polygon><polygon fill="#e8e8e8" points="156.81 305.324 152.684 302.926 163.202 296.852 167.33 299.251" class="colore4e3ee svgShape"></polygon><polygon fill="#e8e8e8" points="147.041 320.3 142.914 317.901 148.513 314.669 152.64 317.068" class="colore4e3ee svgShape"></polygon><polygon fill="#cccccc" points="147.046 321.733 142.919 319.334 142.914 317.901 147.041 320.3" class="colorb7b6e3 svgShape"></polygon><polygon fill="#91d691" points="167.33 299.251 167.333 300.682 157.571 306.317 153.403 318.062 147.046 321.733 147.041 320.3 152.64 317.068 156.81 305.324" class="color919dd6 svgShape"></polygon><g fill="none"><polygon fill="#d7d7d7" points="168.034 326.041 163.907 323.643 168.078 311.899 172.205 314.297" class="colorc4c3ec svgShape"></polygon><polygon fill="#e8e8e8" points="172.205 314.297 168.078 311.899 178.596 305.826 182.724 308.225" class="colore4e3ee svgShape"></polygon><polygon fill="#e8e8e8" points="162.435 329.274 158.308 326.876 163.907 323.643 168.034 326.041" class="colore4e3ee svgShape"></polygon><polygon fill="#cccccc" points="162.44 330.706 158.312 328.308 158.308 326.876 162.435 329.274" class="colorb7b6e3 svgShape"></polygon><polygon fill="#91d691" points="182.724 308.225 182.728 309.655 172.966 315.291 168.797 327.036 162.44 330.706 162.435 329.274 168.034 326.041 172.205 314.297" class="color919dd6 svgShape"></polygon></g><g fill="none"><polygon fill="#d7d7d7" points="183.423 334.95 179.296 332.552 183.467 320.808 187.594 323.206" class="colorc4c3ec svgShape"></polygon><polygon fill="#e8e8e8" points="187.594 323.206 183.467 320.808 193.986 314.735 198.114 317.133" class="colore4e3ee svgShape"></polygon><polygon fill="#e8e8e8" points="177.825 338.183 173.697 335.784 179.296 332.552 183.423 334.95" class="colore4e3ee svgShape"></polygon><polygon fill="#cccccc" points="177.829 339.616 173.701 337.217 173.697 335.784 177.825 338.183" class="colorb7b6e3 svgShape"></polygon><polygon fill="#91d691" points="198.114 317.133 198.118 318.564 188.355 324.2 184.187 335.945 177.829 339.616 177.825 338.183 183.423 334.95 187.594 323.206" class="color919dd6 svgShape"></polygon></g><g fill="none"><polygon fill="#d7d7d7" points="199.008 343.798 194.881 341.399 199.052 329.655 203.179 332.054" class="colorc4c3ec svgShape"></polygon><polygon fill="#e8e8e8" points="203.179 332.054 199.052 329.655 209.571 323.582 213.699 325.981" class="colore4e3ee svgShape"></polygon><polygon fill="#e8e8e8" points="193.409 347.031 189.282 344.632 194.881 341.399 199.008 343.798" class="colore4e3ee svgShape"></polygon><polygon fill="#cccccc" points="193.413 348.463 189.286 346.065 189.282 344.632 193.409 347.031" class="colorb7b6e3 svgShape"></polygon><polygon fill="#91d691" points="213.699 325.981 213.702 327.411 203.94 333.047 199.771 344.793 193.413 348.463 193.409 347.031 199.008 343.798 203.179 332.054" class="color919dd6 svgShape"></polygon></g><g fill="none"><polygon fill="#d7d7d7" points="214.293 352.722 210.166 350.323 214.336 338.579 218.463 340.978" class="colorc4c3ec svgShape"></polygon><polygon fill="#e8e8e8" points="218.463 340.978 214.336 338.579 224.855 332.506 228.983 334.905" class="colore4e3ee svgShape"></polygon><polygon fill="#e8e8e8" points="208.694 355.954 204.567 353.556 210.166 350.323 214.293 352.722" class="colore4e3ee svgShape"></polygon><polygon fill="#cccccc" points="208.698 357.387 204.57 354.989 204.567 353.556 208.694 355.954" class="colorb7b6e3 svgShape"></polygon><polygon fill="#91d691" points="228.983 334.905 228.987 336.335 219.225 341.971 215.056 353.716 208.698 357.387 208.694 355.954 214.293 352.722 218.463 340.978" class="color919dd6 svgShape"></polygon></g></g><g><polygon fill="#d7d7d7" points="329.436 308.348 333.563 305.95 329.393 294.207 325.266 296.605" class="colorc4c3ec svgShape"></polygon><polygon fill="#e8e8e8" points="325.266 296.605 329.393 294.207 318.874 288.133 314.747 290.532" class="colore4e3ee svgShape"></polygon><polygon fill="#e8e8e8" points="335.034 311.581 339.162 309.183 333.563 305.95 329.436 308.348" class="colore4e3ee svgShape"></polygon><polygon fill="#cccccc" points="335.03 313.013 339.158 310.615 339.162 309.183 335.034 311.581" class="colorb7b6e3 svgShape"></polygon><polygon fill="#91d691" points="314.747 290.532 314.743 291.962 324.504 297.598 328.672 309.343 335.03 313.013 335.034 311.581 329.436 308.348 325.266 296.605" class="color919dd6 svgShape"></polygon><polygon fill="#d7d7d7" points="313.918 317.23 318.045 314.831 313.875 303.088 309.747 305.487" class="colorc4c3ec svgShape"></polygon><polygon fill="#e8e8e8" points="309.747 305.487 313.875 303.088 303.355 297.015 299.229 299.413" class="colore4e3ee svgShape"></polygon><polygon fill="#e8e8e8" points="319.516 320.462 323.644 318.064 318.045 314.831 313.918 317.23" class="colore4e3ee svgShape"></polygon><polygon fill="#cccccc" points="319.513 321.895 323.64 319.496 323.644 318.064 319.516 320.462" class="colorb7b6e3 svgShape"></polygon><polygon fill="#91d691" points="299.229 299.413 299.224 300.843 308.986 306.48 313.155 318.224 319.513 321.895 319.516 320.462 313.918 317.23 309.747 305.487" class="color919dd6 svgShape"></polygon><g fill="none"><polygon fill="#d7d7d7" points="298.523 326.204 302.651 323.805 298.48 312.062 294.353 314.46" class="colorc4c3ec svgShape"></polygon><polygon fill="#e8e8e8" points="294.353 314.46 298.48 312.062 287.961 305.988 283.834 308.387" class="colore4e3ee svgShape"></polygon><polygon fill="#e8e8e8" points="304.122 329.436 308.25 327.037 302.651 323.805 298.523 326.204" class="colore4e3ee svgShape"></polygon><polygon fill="#cccccc" points="304.118 330.869 308.246 328.47 308.25 327.037 304.122 329.436" class="colorb7b6e3 svgShape"></polygon><polygon fill="#91d691" points="283.834 308.387 283.83 309.818 293.592 315.454 297.761 327.198 304.118 330.869 304.122 329.436 298.523 326.204 294.353 314.46" class="color919dd6 svgShape"></polygon></g><g fill="none"><polygon fill="#d7d7d7" points="283.134 335.113 287.261 332.714 283.091 320.97 278.964 323.368" class="colorc4c3ec svgShape"></polygon><polygon fill="#e8e8e8" points="278.964 323.368 283.091 320.97 272.571 314.897 268.444 317.295" class="colore4e3ee svgShape"></polygon><polygon fill="#e8e8e8" points="288.733 338.345 292.86 335.947 287.261 332.714 283.134 335.113" class="colore4e3ee svgShape"></polygon><polygon fill="#cccccc" points="288.729 339.778 292.857 337.38 292.86 335.947 288.733 338.345" class="colorb7b6e3 svgShape"></polygon><polygon fill="#91d691" points="268.444 317.295 268.44 318.726 278.202 324.362 282.371 336.107 288.729 339.778 288.733 338.345 283.134 335.113 278.964 323.368" class="color919dd6 svgShape"></polygon></g><g fill="none"><polygon fill="#d7d7d7" points="267.549 343.96 271.677 341.562 267.507 329.818 263.379 332.216" class="colorc4c3ec svgShape"></polygon><polygon fill="#e8e8e8" points="263.379 332.216 267.507 329.818 256.987 323.744 252.859 326.143" class="colore4e3ee svgShape"></polygon><polygon fill="#e8e8e8" points="273.149 347.193 277.276 344.794 271.677 341.562 267.549 343.96" class="colore4e3ee svgShape"></polygon><polygon fill="#cccccc" points="273.144 348.626 277.272 346.227 277.276 344.794 273.149 347.193" class="colorb7b6e3 svgShape"></polygon><polygon fill="#91d691" points="252.859 326.143 252.855 327.574 262.618 333.21 266.786 344.955 273.144 348.626 273.149 347.193 267.549 343.96 263.379 332.216" class="color919dd6 svgShape"></polygon></g><g fill="none"><polygon fill="#d7d7d7" points="252.264 352.884 256.392 350.486 252.222 338.742 248.094 341.14" class="colorc4c3ec svgShape"></polygon><polygon fill="#e8e8e8" points="248.094 341.14 252.222 338.742 241.702 332.668 237.574 335.067" class="colore4e3ee svgShape"></polygon><polygon fill="#e8e8e8" points="257.864 356.117 261.992 353.718 256.392 350.486 252.264 352.884" class="colore4e3ee svgShape"></polygon><polygon fill="#cccccc" points="257.86 357.55 261.987 355.151 261.992 353.718 257.864 356.117" class="colorb7b6e3 svgShape"></polygon><polygon fill="#91d691" points="237.574 335.067 237.571 336.498 247.333 342.134 251.501 353.879 257.86 357.55 257.864 356.117 252.264 352.884 248.094 341.14" class="color919dd6 svgShape"></polygon></g></g><g><polygon fill="#e2e2e2" points="188.946 280.185 192.254 282.095 232.973 305.607 232.973 254.598" class="colord4d5f0 svgShape"></polygon><polygon fill="#d7d7d7" points="232.973 254.598 232.973 305.607 233.262 305.773 273.984 282.107 277.292 280.185" class="colorc4c3ec svgShape"></polygon><polygon fill="#59e643" points="273.984 282.107 233.262 305.773 192.254 282.095 232.973 258.429" class="color05d4f5 svgShape"></polygon></g><polygon fill="#59e643" points="273.984 282.107 233.262 305.773 192.254 282.095 232.973 258.429" class="color05d4f5 svgShape"></polygon><g><polygon fill="#e2e2e2" points="255.132 278.579 255.125 281.05 250.293 283.858 250.3 281.387" class="colord4d5f0 svgShape"></polygon><polygon fill="#d7d7d7" points="250.3 281.387 250.293 283.858 228.69 271.385 228.697 268.915" class="colorc4c3ec svgShape"></polygon><polygon fill="#f0f0f0" points="255.132 278.579 250.3 281.387 228.697 268.915 233.529 266.107" class="coloreeeff2 svgShape"></polygon><g fill="none"><defs fill="none"><path id="a" d="M231.09,282.654l-0.007,2.471c-1.266-0.35-2.479-0.681-3.64-0.995
							c-1.161-0.314-2.234-0.594-3.219-0.843c-0.986-0.248-1.853-0.466-2.6-0.657c-0.749-0.19-1.34-0.335-1.777-0.438l0.007-2.471
							c0.436,0.103,1.027,0.248,1.777,0.438c0.747,0.191,1.615,0.409,2.6,0.657c0.985,0.248,2.057,0.529,3.219,0.842
							C228.611,281.974,229.824,282.305,231.09,282.654z" enable-background="new"></path></defs><use fill="#31f213" overflow="visible" xlink:href="#a" class="color1393f2 svgShape"></use><clipPath id="b" fill="none"><use overflow="visible" xlink:href="#a"></use></clipPath><g clip-path="url(#b)" fill="none"><path fill="#d7d7d7" d="M231.09,282.654l-0.007,2.471c-1.266-0.35-2.479-0.681-3.64-0.995
							c-1.161-0.314-2.234-0.594-3.219-0.843c-0.986-0.248-1.853-0.466-2.6-0.657c-0.749-0.19-1.34-0.335-1.777-0.438l0.007-2.471
							c0.436,0.103,1.027,0.248,1.777,0.438c0.747,0.191,1.615,0.409,2.6,0.657c0.985,0.248,2.057,0.529,3.219,0.842
							C228.611,281.974,229.824,282.305,231.09,282.654z" class="colorc4c3ec svgShape"></path></g><defs fill="none"><path id="c" d="
							M239.287,285.109l-0.007,2.471c-1.067-0.297-2.129-0.592-3.184-0.887l0.007-2.471
							C237.158,284.516,238.22,284.811,239.287,285.109z" enable-background="new"></path></defs><use fill="#31f213" overflow="visible" xlink:href="#c" class="color1393f2 svgShape"></use><clipPath id="d" fill="none"><use overflow="visible" xlink:href="#c"></use></clipPath><g clip-path="url(#d)" fill="none"><path fill="#d7d7d7" d="M239.287,285.109l-0.007,2.471c-1.067-0.297-2.129-0.592-3.184-0.887l0.007-2.471
							C237.158,284.516,238.22,284.811,239.287,285.109z" class="colorc4c3ec svgShape"></path></g><g fill="none"><defs fill="none"><path id="e" d="
							M242.368,285.996l-0.007,2.471c-0.989-0.295-2.015-0.591-3.082-0.888l0.007-2.471
							C240.353,285.405,241.379,285.701,242.368,285.996z" enable-background="new"></path></defs><use fill="#31f213" overflow="visible" xlink:href="#e" class="color1393f2 svgShape"></use><clipPath id="f" fill="none"><use overflow="visible" xlink:href="#e"></use></clipPath><g clip-path="url(#f)" fill="none"><path fill="#d7d7d7" d="M242.368,285.996l-0.007,2.471c-0.989-0.295-2.015-0.591-3.082-0.888l0.007-2.471
							C240.353,285.405,241.379,285.701,242.368,285.996z" class="colorc4c3ec svgShape"></path></g></g><g fill="none"><polygon fill="#e2e2e2" points="247.543 282.989 247.536 285.461 242.361 288.468 242.368 285.996" class="colord4d5f0 svgShape"></polygon></g><g fill="none"><polygon fill="#e2e2e2" points="236.102 284.221 236.096 286.692 227.712 291.564 227.719 289.093" class="colord4d5f0 svgShape"></polygon></g><g fill="none"><defs fill="none"><path id="g" d="
							M225.801,295.625l-0.007,2.471c-1.521-1.813-2.904-3.501-4.153-5.062c-1.249-1.561-2.404-3.047-3.453-4.457
							c-1.054-1.413-2.026-2.767-2.923-4.064c-0.894-1.297-1.729-2.587-2.501-3.872l0.007-2.471
							c0.771,1.285,1.606,2.576,2.501,3.872c0.897,1.297,1.869,2.652,2.922,4.064c1.05,1.41,2.204,2.896,3.453,4.457
							C222.898,292.123,224.281,293.811,225.801,295.625z" enable-background="new"></path></defs><use fill="#31f213" overflow="visible" xlink:href="#g" class="color1393f2 svgShape"></use><clipPath id="h" fill="none"><use overflow="visible" xlink:href="#g"></use></clipPath><g clip-path="url(#h)" fill="none"><path fill="#d7d7d7" d="M225.801,295.625l-0.007,2.471c-1.521-1.813-2.904-3.501-4.153-5.062
							c-1.249-1.561-2.404-3.047-3.453-4.457c-1.054-1.413-2.026-2.767-2.923-4.064c-0.894-1.297-1.729-2.587-2.501-3.872
							l0.007-2.471c0.771,1.285,1.606,2.576,2.501,3.872c0.897,1.297,1.869,2.652,2.922,4.064c1.05,1.41,2.204,2.896,3.453,4.457
							C222.898,292.123,224.281,293.811,225.801,295.625z" class="colorc4c3ec svgShape"></path></g></g><g fill="none"><polygon fill="#e2e2e2" points="230.818 292.709 230.811 295.18 225.795 298.095 225.801 295.625" class="colord4d5f0 svgShape"></polygon></g><g fill="none"><path fill="#f0f0f0" d="M239.287,285.109c-1.067-0.298-2.129-0.593-3.184-0.888l-8.383,4.872
						c0.516,0.613,1.035,1.226,1.553,1.842c0.518,0.615,1.037,1.206,1.545,1.775l-5.017,2.915c-1.52-1.814-2.904-3.501-4.153-5.062
						c-1.249-1.561-2.403-3.047-3.453-4.457c-1.053-1.413-2.026-2.767-2.922-4.064c-0.895-1.296-1.73-2.587-2.501-3.872l4.58-2.662
						c2.202,0.454,4.429,0.935,6.681,1.443c2.254,0.509,4.601,1.064,7.045,1.668c2.438,0.603,5.009,1.266,7.71,1.984
						c2.701,0.717,5.618,1.513,8.754,2.387l-5.175,3.007C241.379,285.701,240.353,285.405,239.287,285.109z M224.952,286.221
						l6.138-3.567c-1.266-0.35-2.479-0.68-3.64-0.995c-1.161-0.314-2.233-0.594-3.219-0.842c-0.985-0.248-1.853-0.466-2.6-0.657
						c-0.749-0.19-1.34-0.336-1.777-0.438c0.206,0.244,0.476,0.582,0.808,1.015c0.333,0.433,0.723,0.929,1.164,1.492
						c0.443,0.563,0.925,1.187,1.448,1.867C223.798,284.777,224.356,285.487,224.952,286.221z" class="coloreeeff2 svgShape"></path></g></g></g><g><path fill="#59e643" d="M233.596,383.02L87.245,298.523l145.41-84.503l146.352,84.496L233.596,383.02z M91.13,298.518
					l142.464,82.251l141.528-82.247l-142.464-82.251L91.13,298.518z" class="color05d4f5 svgShape"></path></g><g><path fill="#59e643" d="M109.943 310.503l-10.82 6.246c-.161.092-.356.092-.513 0l-11.097-6.407-36.02 20.796-3.357 1.938c-.082.048-.167.068-.257.068-.178 0-.349-.092-.444-.257-.14-.243-.058-.557.188-.701l2.831-1.634 36.803-21.247c.157-.089.352-.089.513 0l11.097 6.407 10.051-5.802L109.943 310.503zM197.199 359.897l-1.709.984-9.846 5.685c-.157.092-.352.092-.513 0l-11.093-6.406-14.007 8.085-1.025.591-21.278 12.287-3.067 1.771c-.082.048-.168.068-.257.068-.178 0-.348-.092-.444-.256-.14-.246-.058-.557.188-.701l2.732-1.576 21.1-12.184 1.025-.592 14.776-8.53c.157-.092.352-.092.513 0l11.093 6.407 9.077-5.241 1.71-.988L197.199 359.897zM163.525 340.451l-1.71.988-9.572 5.528c-.157.089-.352.089-.513 0l-11.093-6.407-14.277 8.243-1.026.591-20.454 11.812-3.621 2.089c-.082.044-.171.068-.257.068-.177 0-.349-.092-.444-.257-.14-.246-.058-.561.188-.701l3.31-1.911 20.253-11.692 1.025-.592 15.046-8.687c.157-.093.352-.093.513 0l11.093 6.407 8.804-5.084 1.71-.988L163.525 340.451zM136.664 324.944l-1.713.988-36.191 20.895-2.724 1.573c-.082.048-.171.069-.256.069-.178 0-.349-.093-.445-.257-.143-.243-.058-.557.188-.701l2.263-1.306 36.139-20.868 1.713-.988L136.664 324.944zM209.582 367.046l-1.71.984-35.691 20.608-2.759 1.593c-.082.044-.171.068-.257.068-.178 0-.349-.093-.444-.257-.144-.246-.059-.56.188-.701l2.236-1.289 35.702-20.615 1.709-.988L209.582 367.046zM175.046 347.104l-1.71.988-24.105 13.918-1.025.592-10.93 6.315c0-.003 0-.003-.004 0l-2.861 1.651c-.082.048-.167.068-.257.068-.177 0-.348-.089-.444-.257-.14-.242-.058-.557.188-.697l2.369-1.367 10.916-6.304 1.022-.591 24.105-13.918 1.709-.987L175.046 347.104z" class="color05d4f5 svgShape"></path><polygon fill="#59e643" points="174.52 376.611 160.999 384.416 157.221 386.597 156.708 385.708 160.106 383.746 172.468 376.611 159.005 368.837 157.98 368.246 148.206 362.601 147.184 362.009 125.334 349.395 124.309 348.803 115.424 343.672 140.377 329.063 142.076 328.069 143.098 328.657 141.399 329.652 117.465 343.668 125.334 348.212 126.36 348.803 148.206 361.418 149.231 362.009 159.005 367.654 160.031 368.246" class="color05d4f5 svgShape"></polygon><path fill="#59e643" d="M51.06 330.84c1.527.881 1.527 2.31 0 3.191-1.527.882-4.001.882-5.529 0-1.526-.881-1.526-2.31 0-3.191C47.059 329.958 49.534 329.958 51.06 330.84zM118.23 329.306c0 .184-.096.352-.257.444l-31.015 17.907-2.837 1.637c-.082.048-.168.068-.257.068-.178 0-.349-.089-.445-.256-.14-.243-.058-.557.188-.697l2.355-1.361 30.728-17.743-11.408-6.588c-.16-.089-.256-.259-.256-.441 0-.185.096-.355.256-.444l11.285-6.516 1.709-.988 1.029.592-1.713.987-11.028 6.369 11.408 6.584C118.135 328.954 118.23 329.125 118.23 329.306z" class="color05d4f5 svgShape"></path><path fill="#59e643" d="M86.433 347.278c1.527.881 1.527 2.31 0 3.192-1.527.882-4.002.882-5.529 0-1.527-.882-1.527-2.311 0-3.192C82.43 346.397 84.906 346.397 86.433 347.278zM216.266 385.212c0 .181-.096.353-.257.445l-30.204 17.439-3.648 2.106c-.079.044-.168.069-.256.069-.175 0-.349-.093-.444-.257-.14-.247-.055-.561.188-.701l3.176-1.832 29.907-17.268-11.409-6.588c-.157-.092-.256-.26-.256-.444 0-.184.099-.352.256-.445l10.684-6.167 1.71-.984 1.022.591-1.71.984-10.423 6.021 11.408 6.588C216.17 384.86 216.266 385.028 216.266 385.212z" class="color05d4f5 svgShape"></path><path fill="#59e643" d="M185.254 402.692c1.526.882 1.526 2.311 0 3.192-1.527.881-4.002.881-5.529 0-1.527-.882-1.527-2.311 0-3.192C181.252 401.811 183.727 401.811 185.254 402.692zM98.174 346.398c1.526.882 1.526 2.31 0 3.192-1.527.882-4.002.882-5.529 0-1.527-.882-1.527-2.31 0-3.192C94.173 345.517 96.647 345.517 98.174 346.398zM104.045 360.488c1.527.881 1.527 2.31 0 3.192-1.526.881-4.002.881-5.528 0-1.527-.882-1.527-2.311 0-3.192C100.043 359.606 102.519 359.606 104.045 360.488zM136.775 368.56c1.527.882 1.527 2.311 0 3.193-1.527.881-4.002.881-5.529 0-1.527-.882-1.527-2.31 0-3.193C132.773 367.679 135.249 367.679 136.775 368.56zM136.922 380.449c1.527.881 1.527 2.31 0 3.191-1.527.882-4.002.882-5.529 0-1.527-.881-1.527-2.31 0-3.191C132.92 379.568 135.395 379.568 136.922 380.449z" class="color05d4f5 svgShape"></path><g fill="none"><path fill="#59e643" d="M160.259,383.825c1.527,0.882,1.527,2.311,0,3.192c-1.527,0.881-4.001,0.881-5.529,0
						c-1.526-0.882-1.526-2.311,0-3.192C156.257,382.943,158.732,382.943,160.259,383.825z" class="color05d4f5 svgShape"></path></g><g fill="none"><path fill="#59e643" d="M171.752,388.34c1.526,0.882,1.526,2.31,0,3.193c-1.527,0.881-4.002,0.881-5.529,0
						c-1.527-0.882-1.527-2.311,0-3.193C167.75,387.459,170.226,387.459,171.752,388.34z" class="color05d4f5 svgShape"></path></g><g fill="none"><path fill="#59e643" d="M387.065 345.839c-.096.164-.267.256-.445.256-.089 0-.174-.024-.257-.068l-3.118-1.798-30.734-17.746c-.161-.093-.256-.263-.256-.445 0-.185.095-.352.256-.445l11.408-6.588-10.236-5.911-1.706-.984 1.019-.595 1.709.984 10.495 6.062c.161.092.257.26.257.444 0 .185-.096.353-.257.445l-11.408 6.588 30.601 17.668 2.482 1.433C387.123 345.278 387.206 345.593 387.065 345.839zM280.903 407.287c-.096.164-.267.257-.444.257-.089 0-.174-.024-.256-.068l-3.022-1.744-30.83-17.801c-.157-.093-.257-.264-.257-.445 0-.185.099-.352.257-.444l11.408-6.588-10.024-5.788-1.702-.985 1.022-.595 1.702.984 10.284 5.939c.16.092.256.26.256.444 0 .181-.096.352-.256.445l-11.408 6.588 30.741 17.75 2.342 1.351C280.961 406.727 281.044 407.041 280.903 407.287zM333.244 374.29c-.096.164-.27.257-.445.257-.089 0-.178-.021-.256-.068l-2.835-1.637-23.326-13.467c-.161-.092-.257-.26-.257-.444 0-.185.096-.353.257-.445l8.649-4.995-7.791-4.581-1.016-.598-6.53-3.842-1.689-.995 1.019-.591 1.689.994 6.534 3.843 1.015.598 8.048 4.735c.158.093.253.264.253.445-.004.185-.099.352-.257.445l-8.642 4.988 23.432 13.528c0 0 0 0 .003 0l1.955 1.131C333.299 373.732 333.384 374.043 333.244 374.29zM375.613 372.933c-.096.164-.267.256-.444.256-.089 0-.175-.024-.257-.069l-3.019-1.743-42.529-24.557c-.161-.092-.257-.26-.257-.444 0-.181.096-.352.257-.444l15.617-9.015-16.194-9.354-1.706-.984 1.019-.591 1.706.984 16.458 9.501c.157.092.257.26.257.445 0 .184-.099.352-.257.444l-15.617 9.015 42.434 24.502 2.345 1.354C375.671 372.372 375.753 372.686 375.613 372.933zM329.976 385.756c-.092.164-.267.257-.444.257-.086 0-.174-.021-.256-.068l-2.595-1.497-30.102-17.381-16.608 9.59c-.157.092-.355.092-.512 0l-17.63-10.181-1.703-.985 1.019-.591 1.703.984 16.868 9.737 16.608-9.59c.161-.093.355-.093.513 0l30.875 17.825 2.079 1.2C330.034 385.199 330.12 385.51 329.976 385.756zM375.151 344.943c-.096.164-.267.257-.444.257-.086 0-.175-.024-.257-.068l-2.927-1.689-35.144-20.29-1.706-.988 1.022-.592 1.706.985 35.223 20.334 2.339 1.351C375.209 344.382 375.295 344.697 375.151 344.943zM402.309 329.033c-.095.164-.267.257-.444.257-.089 0-.174-.024-.257-.069l-3.221-1.86-34.737-20.058-1.71-.984 1.023-.595 1.71.985 34.699 20.037 2.749 1.586C402.367 328.472 402.45 328.786 402.309 329.033zM343.582 362.906c-.096.164-.27.257-.445.257-.089 0-.177-.021-.256-.069l-3.176-1.832-26.929-15.548-1.026-.591-6.608-3.819-1.706-.985 1.023-.591 1.706.985 6.612 3.815 1.025.595 26.834 15.49 2.758 1.593C343.637 362.348 343.723 362.659 343.582 362.906zM292.609 392.621c-.092.164-.267.256-.444.256-.086 0-.174-.021-.257-.068l-2.95-1.702c-.004-.004-.004 0-.004 0l-34.867-20.133-1.703-.985 1.022-.595 1.703.984 34.946 20.174 2.366 1.367C292.667 392.064 292.753 392.378 292.609 392.621z" class="color05d4f5 svgShape"></path><polygon fill="#59e643" points="330.215 335.644 313.802 345.121 312.777 345.713 308.264 348.318 307.242 348.909 286.664 360.789 283.591 362.563 283.078 361.674 285.816 360.096 306.226 348.311 307.248 347.72 311.751 345.121 312.777 344.526 328.164 335.644 321.501 331.799 319.795 330.811 320.817 330.219 322.523 331.204" class="color05d4f5 svgShape"></polygon><path fill="#59e643" d="M282.785 405.683c1.527.881 1.527 2.31 0 3.192-1.527.881-4.002.881-5.529 0-1.527-.882-1.527-2.311 0-3.192C278.783 404.801 281.258 404.801 282.785 405.683zM294.791 390.905c1.527.882 1.527 2.31 0 3.192-1.527.881-4.002.881-5.529 0-1.527-.882-1.527-2.311 0-3.192C290.789 390.024 293.264 390.024 294.791 390.905zM285.863 360.12c1.527.882 1.527 2.311 0 3.192-1.527.882-4.002.882-5.529 0-1.527-.881-1.527-2.31 0-3.192C281.862 359.238 284.337 359.238 285.863 360.12zM332.657 384.133c1.527.881 1.527 2.311 0 3.192-1.527.882-4.002.882-5.529 0-1.527-.881-1.527-2.311 0-3.192C328.655 383.251 331.13 383.251 332.657 384.133zM334.812 373.049c1.527.882 1.527 2.311 0 3.192-1.526.882-4.001.882-5.529 0-1.526-.881-1.526-2.31 0-3.192C330.811 372.168 333.286 372.168 334.812 373.049zM345.901 360.747c1.527.882 1.527 2.31 0 3.192-1.526.882-4.001.882-5.528 0-1.527-.882-1.527-2.31 0-3.192C341.9 359.866 344.375 359.866 345.901 360.747zM377.524 371.317c1.527.881 1.527 2.31 0 3.192-1.527.882-4.002.882-5.529 0-1.527-.882-1.527-2.311 0-3.192C373.522 370.435 375.997 370.435 377.524 371.317zM377.351 343.247c1.527.882 1.527 2.31 0 3.192-1.527.882-4.002.882-5.529 0-1.527-.882-1.527-2.31 0-3.192C373.349 342.365 375.824 342.365 377.351 343.247zM388.96 344.113c1.527.881 1.527 2.31 0 3.192s-4.002.882-5.529 0c-1.527-.882-1.527-2.311 0-3.192C384.958 343.232 387.434 343.232 388.96 344.113zM404.468 326.959c1.527.881 1.527 2.31 0 3.192-1.526.882-4.002.882-5.529 0-1.526-.882-1.526-2.311 0-3.192C400.466 326.078 402.942 326.078 404.468 326.959z" class="color05d4f5 svgShape"></path></g><g fill="none"><path fill="#59e643" d="M195.709 203.682c0 .181-.093.349-.25.445l-8.119 4.865-1.009.606-10.191 6.105-1.005.602-9.555 5.726 26.851 15.504 1.706.984-1.022.595-1.71-.984-27.094-15.644c-.157-.092-.253-.26-.257-.441 0-.181.093-.352.25-.445l9.812-5.88 1.008-.605 10.191-6.106 1.005-.606 7.863-4.71-15.066-8.698-2.55-1.473c-.243-.141-.328-.455-.188-.698.144-.246.455-.332.701-.188l3.019 1.744 15.354 8.862C195.61 203.333 195.706 203.501 195.709 203.682zM103.913 289.963L77.544 274.74l11.409-6.588c.157-.092.256-.26.256-.444 0-.181-.099-.352-.256-.445l-15.494-8.943-2.879-1.661c-.246-.144-.557-.059-.701.188-.14.242-.059.557.188.701l2.195 1.268 15.408 8.892-11.408 6.588c-.16.092-.257.26-.257.444 0 .185.096.353.257.444l26.629 15.374L103.913 289.963zM157.566 259.773l-1.019.591-1.709-.985-18.342-10.591c-.158-.089-.257-.259-.257-.441 0-.185.099-.355.257-.444l8.649-4.995-21.165-12.454-2.007-1.183c-.246-.144-.328-.458-.184-.701.143-.243.458-.325.704-.181l2.557 1.508 21.374 12.574c.157.092.256.259.253.444 0 .181-.096.349-.257.441l-8.643 4.992 18.082 10.437L157.566 259.773zM180.485 246.454l-1.022.591-1.706-.985-28.53-16.471c-.157-.092-.257-.26-.257-.444 0-.185.099-.352.257-.445l12.595-7.271-16.003-9.241-3.385-1.956c-.246-.14-.331-.454-.188-.697.14-.246.455-.332.701-.188l3.863 2.229 16.294 9.408c.161.093.257.26.257.445s-.096.352-.257.444l-12.595 7.272 28.27 16.321L180.485 246.454zM144.654 267.273l-1.023.595-1.706-.984L123.3 256.132l-13.319 7.689c-.157.092-.352.092-.512 0l-18.02-10.403-2.219-1.282c-.246-.14-.328-.455-.188-.701.143-.246.455-.328.701-.188l2.653 1.532 17.329 10.006 13.32-7.688c.16-.093.355-.093.513 0l19.391 11.193L144.654 267.273z" class="color05d4f5 svgShape"></path><path fill="#59e643" d="M204.864 232.286l-1.022.595-1.71-.988-26.997-15.59-1.019-.585-8.362-4.834c0 0 0 0-.003 0l-2.171-1.251c-.246-.144-.331-.455-.188-.701.141-.246.455-.328.701-.188l2.8 1.617 8.232 4.752 1.016.588 27.018 15.596L204.864 232.286zM216.252 225.668l-1.022.595-1.709-.985-27.19-15.681-1.015-.588-31.449-18.14-1.631-.94c-.246-.14-.328-.455-.188-.698.14-.246.454-.332.701-.191l2.39 1.378 31.182 17.986 1.019.588 27.203 15.692L216.252 225.668zM174.94 249.674l-1.022.595-1.706-.984-36.04-20.806c0 0 0 0-.003 0l-2.41-1.395c-.246-.143-.331-.458-.188-.701.14-.246.454-.332.701-.188l3.022 1.744 35.941 20.752L174.94 249.674zM124.285 279.112l-1.022.595-1.706-.984-16.092-9.292-3.856-2.225c-.243-.141-.329-.455-.185-.701.14-.243.454-.329.697-.188l4.42 2.55 16.037 9.261L124.285 279.112zM73.387 255.174c1.527.882 1.527 2.31 0 3.192-1.527.882-4.002.882-5.529 0-1.527-.882-1.527-2.31 0-3.192C69.385 254.292 71.861 254.292 73.387 255.174z" class="color05d4f5 svgShape"></path><path fill="#59e643" d="M106.179 265.916c1.527.881 1.527 2.31 0 3.192-1.526.881-4.002.881-5.528 0-1.527-.882-1.527-2.311 0-3.192C102.177 265.034 104.653 265.034 106.179 265.916zM91.761 250.065c1.527.881 1.527 2.31 0 3.192-1.527.882-4.002.882-5.529 0-1.527-.882-1.527-2.311 0-3.192C87.759 249.184 90.235 249.184 91.761 250.065zM124.701 226.936c1.527.881 1.527 2.31 0 3.191-1.527.882-4.002.882-5.529 0-1.527-.881-1.527-2.31 0-3.191C120.699 226.054 123.174 226.054 124.701 226.936zM97.82 242.482c1.526.882 1.526 2.311 0 3.192-1.527.882-4.002.882-5.529 0-1.527-.881-1.527-2.31 0-3.192C93.817 241.601 96.293 241.601 97.82 242.482z" class="color05d4f5 svgShape"></path><path fill="#59e643" d="M151.402 263.352l-1.022.595-1.706-.984-42.67-24.635-7.736 4.465-2.916 1.682c-.243.144-.557.058-.701-.188-.14-.243-.055-.557.188-.701l2.397-1.384 8.513-4.913c.157-.089.352-.089.512 0l43.435 25.08L151.402 263.352zM222.703 221.917l-1.022.595-1.709-.984-18.543-10.708c-.16-.092-.257-.259-.257-.444s.096-.352.257-.444l8.649-4.995-21.165-12.454-2.01-1.18c-.242-.143-.325-.458-.181-.701.143-.246.458-.328.701-.185l2.56 1.504 21.374 12.578c.158.092.253.263.253.445-.003.184-.099.352-.256.444l-8.643 4.988 18.286 10.557L222.703 221.917z" class="color05d4f5 svgShape"></path><path fill="#59e643" d="M189.63 188.966c1.527.881 1.527 2.31 0 3.192-1.527.881-4.002.881-5.529 0-1.527-.882-1.527-2.311 0-3.192C185.628 188.084 188.103 188.084 189.63 188.966zM137.042 224.908c1.527.881 1.527 2.31 0 3.192-1.526.881-4.001.881-5.528 0-1.527-.882-1.527-2.311 0-3.192C133.041 224.026 135.516 224.026 137.042 224.908zM146.272 208.775c1.526.881 1.526 2.31 0 3.192-1.527.881-4.002.881-5.529 0-1.527-.882-1.527-2.311 0-3.192C142.27 207.894 144.745 207.894 146.272 208.775zM155.264 187.16c1.527.882 1.527 2.311 0 3.192-1.526.881-4.002.881-5.528 0-1.527-.882-1.527-2.311 0-3.192C151.262 186.279 153.738 186.279 155.264 187.16zM179.541 191.594c1.527.881 1.527 2.31 0 3.191-1.527.882-4.002.882-5.529 0-1.527-.881-1.527-2.31 0-3.191C175.539 190.712 178.014 190.712 179.541 191.594zM166.7 207.29c1.527.882 1.527 2.311 0 3.192-1.526.882-4.002.882-5.528 0-1.527-.881-1.527-2.31 0-3.192C162.698 206.409 165.174 206.409 166.7 207.29z" class="color05d4f5 svgShape"></path></g><g fill="none"><path fill="#59e643" d="M368.334 262.483c-.003.181-.099.349-.256.441l-25.48 14.711-1.706.984-1.026-.591 1.706-.988 25.237-14.571-23.162-13.876-1.005-.606-5.712-3.422c-.158-.093-.253-.263-.25-.445 0-.181.099-.349.257-.441l15.35-8.862 3.022-1.744c.243-.143.557-.058.697.188.144.246.058.557-.184.701l-2.547 1.47-15.07 8.701 5.453 3.268 1.009.602 23.418 14.034C368.238 262.135 368.334 262.303 368.334 262.483zM343.921 230.163l-2.007 1.18-21.165 12.454 8.649 4.995c.158.093.257.26.257.445 0 .184-.099.352-.257.444l-17.61 10.167-1.706.985-1.025-.592 1.706-.984 17.353-10.02-8.643-4.988c-.157-.093-.257-.26-.257-.445 0-.181.096-.352.253-.444l21.374-12.578 2.558-1.504c.246-.144.56-.062.704.185C344.249 229.705 344.167 230.02 343.921 230.163zM322.055 207.941l-3.289 1.901-16.523 9.538 12.875 7.432c.161.092.257.263.257.444 0 .185-.096.353-.257.445l-29.504 17.032-1.706.988-1.026-.591 1.706-.984 29.247-16.889-12.875-7.432c-.157-.092-.257-.259-.257-.444 0-.184.1-.352.257-.444l16.906-9.761 3.675-2.123c.246-.141.561-.059.701.188C322.386 207.487 322.301 207.798 322.055 207.941zM395.879 272.61l-2.198 1.268-14.871 8.585c-.157.093-.352.093-.513 0l-11.189-6.461-13.668 7.891-1.71.988-1.025-.595 1.71-.984 14.437-8.335c.157-.092.355-.092.513 0l11.189 6.461 14.003-8.082 2.81-1.624c.247-.14.557-.058.701.188C396.207 272.155 396.125 272.467 395.879 272.61zM301.279 210.697l-2.171 1.251c-.003 0-.003 0-.003 0l-35.134 20.29-1.71.984-1.026-.592 1.706-.984 35.025-20.222 2.8-1.617c.246-.143.561-.058.701.188C301.611 210.242 301.525 210.554 301.279 210.697zM313.659 190.82l-1.628.941-59.117 34.095-1.71.984-1.025-.591 1.706-.985 58.87-33.954 2.39-1.378c.246-.14.56-.058.701.188C313.99 190.366 313.904 190.68 313.659 190.82zM332.137 227.972l-2.417 1.395-35.36 20.417-1.71.985-1.025-.591 1.706-.985 35.268-20.362 3.026-1.747c.246-.14.561-.058.701.188C332.468 227.517 332.383 227.831 332.137 227.972zM293.819 227.51l-3.856 2.225-15.166 8.756-1.706.984-1.026-.591 1.706-.984 15.121-8.728 4.413-2.55c.246-.14.561-.058.701.188C294.148 227.056 294.066 227.367 293.819 227.51z" class="color05d4f5 svgShape"></path><path fill="#59e643" d="M289.25 226.22c-1.527.882-1.527 2.31 0 3.192 1.527.882 4.002.882 5.529 0 1.527-.882 1.527-2.31 0-3.192C293.252 225.338 290.777 225.338 289.25 226.22zM392.786 270.3c-1.527.881-1.527 2.31 0 3.191 1.527.882 4.002.882 5.529 0 1.526-.881 1.526-2.31 0-3.191C396.788 269.418 394.313 269.418 392.786 270.3zM341.195 227.826c-1.527.882-1.527 2.311 0 3.192 1.527.882 4.002.882 5.529 0 1.526-.881 1.526-2.31 0-3.192C345.197 226.944 342.722 226.944 341.195 227.826zM368.076 243.373c-1.527.882-1.527 2.311 0 3.192 1.527.882 4.002.882 5.529 0 1.527-.881 1.527-2.31 0-3.192C372.078 242.491 369.603 242.491 368.076 243.373z" class="color05d4f5 svgShape"></path><path fill="#59e643" d="M371.243 245.178c-.144.246-.455.328-.701.188l-2.913-1.682-7.74-4.469-15.223 8.79-1.019.588-25.675 14.823-1.709.985-1.022-.591 1.706-.984 25.695-14.838 1.015-.584 15.976-9.224c.16-.092.356-.092.513 0l8.512 4.916 2.397 1.381C371.298 244.618 371.384 244.932 371.243 245.178zM278.992 192.195l-2.003 1.18-21.172 12.454 8.649 4.995c.161.093.257.26.257.445 0 .181-.096.352-.257.444l-18.027 10.407-1.706.984-6.427 3.709c-.079.048-.168.072-.253.072-.178 0-.352-.092-.445-.256-.143-.246-.058-.561.185-.701l5.914-3.415 1.71-.984 17.767-10.26-8.643-4.991c-.158-.092-.253-.26-.257-.441 0-.184.096-.352.253-.444l21.374-12.578 2.561-1.504c.242-.144.557-.062.701.181C279.317 191.737 279.239 192.051 278.992 192.195z" class="color05d4f5 svgShape"></path><path fill="#59e643" d="M276.266 189.856c-1.527.882-1.527 2.31 0 3.192 1.526.882 4.001.882 5.528 0 1.527-.882 1.527-2.31 0-3.192C280.267 188.975 277.792 188.975 276.266 189.856zM328.853 225.798c-1.527.881-1.527 2.31 0 3.192 1.527.882 4.002.882 5.529 0 1.526-.882 1.526-2.311 0-3.192C332.855 224.917 330.38 224.917 328.853 225.798zM318.587 206.557c-1.527.882-1.527 2.31 0 3.192 1.526.882 4.002.882 5.529 0 1.526-.882 1.526-2.31 0-3.192C322.589 205.675 320.114 205.675 318.587 206.557zM310.631 188.051c-1.527.882-1.527 2.31 0 3.192 1.527.882 4.002.882 5.529 0 1.527-.882 1.527-2.31 0-3.192C314.633 187.17 312.158 187.17 310.631 188.051zM352.847 232.035c-1.527.882-1.527 2.311 0 3.192 1.527.882 4.002.882 5.529 0 1.527-.881 1.527-2.31 0-3.192C356.849 231.153 354.374 231.153 352.847 232.035zM298.159 208.353c-1.527.882-1.527 2.31 0 3.192 1.527.882 4.002.882 5.529 0 1.527-.882 1.527-2.31 0-3.192C302.161 207.472 299.685 207.472 298.159 208.353z" class="color05d4f5 svgShape"></path></g></g><g><defs fill="none"><path id="i" d="
							M180.662,225.701l-8.49-4.934c-0.934-0.543-1.622-1.609-1.888-3.299l8.491,4.934
							C179.04,224.092,179.727,225.158,180.662,225.701z" enable-background="new"></path></defs><use fill="#e0e0e0" overflow="visible" xlink:href="#i" class="colordad9e8 svgShape"></use><clipPath id="j" fill="none"><use overflow="visible" xlink:href="#i"></use></clipPath><g clip-path="url(#j)" fill="none"><path fill="#e0e0e0" d="M180.662,225.701l-8.49-4.934c-0.928-0.539-1.614-1.596-1.883-3.269l8.49,4.934
							C179.048,224.104,179.733,225.161,180.662,225.701z" class="colordad9e8 svgShape"></path><path fill="#e0e0e0" d="M178.778,222.432l-8.49-4.934c-0.002-0.01-0.003-0.02-0.005-0.03l8.491,4.934
							C178.775,222.411,178.777,222.422,178.778,222.432z" class="colordad9e8 svgShape"></path></g><defs fill="none"><path id="k" d="M187.966,137.124l8.491,4.934
							c-2.478-1.439-5.912-1.26-9.757,0.96l-8.49-4.934C182.054,135.864,185.489,135.684,187.966,137.124z"></path></defs><use fill="#e0e0e0" overflow="visible" xlink:href="#k" class="colordad9e8 svgShape"></use><clipPath id="l" fill="none"><use overflow="visible" xlink:href="#k"></use></clipPath><g clip-path="url(#l)" fill="none"><path fill="#e0e0e0" d="M186.699,143.018l-8.49-4.934c3.845-2.22,7.28-2.4,9.757-0.96l8.491,4.934
							C193.979,140.618,190.545,140.798,186.699,143.018z" class="colordad9e8 svgShape"></path></g><polygon fill="#e0e0e0" points="178.774 222.401 170.283 217.467 162.124 165.708 170.615 170.642" class="colordad9e8 svgShape"></polygon><polygon fill="#eeeeee" points="184.111 144.512 175.621 139.578 178.209 138.084 186.699 143.018" class="colorebebf1 svgShape"></polygon><defs fill="none"><path id="m" d="
							M170.615,170.642l-8.49-4.934c-1.389-8.808,5.036-21.246,13.496-26.13l8.49,4.934
							C175.65,149.397,169.226,161.835,170.615,170.642z" enable-background="new"></path></defs><use fill="#eeeeee" overflow="visible" xlink:href="#m" class="colorebebf1 svgShape"></use><clipPath id="n" fill="none"><use overflow="visible" xlink:href="#m"></use></clipPath><g clip-path="url(#n)" fill="none"><path fill="#eeeeee" d="M170.615,170.642l-8.49-4.934c-0.422-2.678-0.122-5.691,0.738-8.727l8.49,4.934
							C170.492,164.95,170.192,167.964,170.615,170.642z" class="colorebebf1 svgShape"></path><path fill="#eeeeee" d="M171.352,161.916l-8.49-4.934c0.968-3.415,2.644-6.857,4.799-9.878l8.49,4.934
							C173.997,155.059,172.32,158.501,171.352,161.916z" class="colorebebf1 svgShape"></path><path fill="#eeeeee" d="M176.151 152.038l-8.49-4.934c1.647-2.309 3.573-4.372 5.674-5.989l8.491 4.934C179.724 147.666 177.798 149.729 176.151 152.038zM181.826 146.048l-8.491-4.934c.741-.571 1.505-1.086 2.286-1.536l8.49 4.934C183.33 144.963 182.567 145.478 181.826 146.048z" class="colorebebf1 svgShape"></path></g><g fill="none"><path fill="#d7d7d7" d="M186.699,143.018c8.46-4.885,14.93,0.108,13.596,10.488l-7.836,60.993
						c-0.62,4.822-3.719,8.843-6.824,10.636c-3.106,1.793-6.217,1.357-6.862-2.734l-8.159-51.759
						c-1.389-8.808,5.036-21.246,13.496-26.13L186.699,143.018z" class="colorc4c3ec svgShape"></path></g><g fill="none"><defs fill="none"><path id="o" d="
							M196.092,143.457l5.913,3.437c-2.51-1.459-5.986-1.254-9.824,0.962l-5.913-3.436
							C190.105,142.204,193.581,141.999,196.092,143.457z" enable-background="new"></path></defs><use fill="#59e643" overflow="visible" xlink:href="#o" class="color05d4f5 svgShape"></use><clipPath id="p" fill="none"><use overflow="visible" xlink:href="#o"></use></clipPath><g clip-path="url(#p)" fill="none"><path fill="#59e643" d="M192.182,147.856l-5.913-3.436c3.837-2.216,7.313-2.421,9.824-0.962l5.913,3.437
							C199.495,145.435,196.019,145.64,192.182,147.856z" class="color05d4f5 svgShape"></path></g><g fill="none"><path fill="#59e643" d="M193.552,153.632c5.223-3.019,9.483-0.589,9.497,5.417c0.02,6.002-4.211,13.33-9.436,16.344
						c-5.225,3.02-9.487,0.594-9.501-5.41C184.092,163.982,188.328,156.645,193.552,153.632z" class="color05d4f5 svgShape"></path></g><g fill="none"><defs fill="none"><path id="q" d="
							M182.442,180.556l-5.914-3.436c-2.478-1.44-4.015-4.503-4.027-8.855c-0.025-8.764,6.14-19.442,13.767-23.845l5.913,3.436
							c-7.627,4.404-13.792,15.081-13.767,23.845C178.427,176.054,179.964,179.116,182.442,180.556z" enable-background="new"></path></defs><use fill="#59e643" overflow="visible" xlink:href="#q" class="color05d4f5 svgShape"></use><clipPath id="r" fill="none"><use overflow="visible" xlink:href="#q"></use></clipPath><g clip-path="url(#r)" fill="none"><path fill="#59e643" d="M182.442 180.556l-5.914-3.436c-2.201-1.279-3.659-3.837-3.967-7.443l5.914 3.437C178.783 176.719 180.241 179.277 182.442 180.556zM178.476 173.114l-5.914-3.437c-.039-.454-.059-.925-.061-1.413-.021-7.556 4.559-16.536 10.71-21.689l5.914 3.437c-6.152 5.153-10.732 14.133-10.71 21.689C178.416 172.188 178.437 172.659 178.476 173.114z" class="color05d4f5 svgShape"></path><path fill="#59e643" d="M189.125,150.012l-5.914-3.437c0.983-0.824,2.006-1.549,3.057-2.156l5.913,3.436
							C191.131,148.462,190.108,149.188,189.125,150.012z" class="color05d4f5 svgShape"></path></g></g><g fill="none"><defs fill="none"><path id="s" d="
							M193.552,153.632l-1.371-5.777c7.627-4.403,13.828-0.865,13.853,7.899c0.025,8.764-6.136,19.435-13.763,23.839
							c-7.627,4.403-13.832,0.872-13.857-7.892c-0.025-8.764,6.14-19.442,13.767-23.845L193.552,153.632
							c-5.224,3.013-9.46,10.349-9.44,16.35c0.014,6.004,4.276,8.43,9.501,5.41c5.225-3.014,9.456-10.342,9.436-16.344
							C203.036,153.043,198.776,150.613,193.552,153.632z" enable-background="new"></path></defs><use fill="#59e643" overflow="visible" xlink:href="#s" class="color05d4f5 svgShape"></use><clipPath id="t" fill="none"><use overflow="visible" xlink:href="#s"></use></clipPath><g clip-path="url(#t)" fill="none"><path fill="#2af312" d="M193.552,153.632l-1.371-5.777c7.627-4.403,13.828-0.865,13.853,7.899
							c0.025,8.764-6.136,19.435-13.763,23.839c-7.627,4.403-13.832,0.872-13.857-7.892c-0.025-8.764,6.14-19.442,13.767-23.845
							L193.552,153.632c-5.224,3.013-9.46,10.349-9.44,16.35c0.014,6.004,4.276,8.43,9.501,5.41
							c5.225-3.014,9.456-10.342,9.436-16.344C203.036,153.043,198.776,150.613,193.552,153.632z" class="color12b0f3 svgShape"></path></g></g></g><g fill="none"><path fill="#31f213" d="M191.316,98.627L175.99,48.587L191.316,98.627z" class="color1393f2 svgShape"></path><rect width="3.012" height="52.335" x="182.147" y="47.439" fill="#171f29" transform="rotate(-17.025 183.68 73.613)" class="color171c29 svgShape"></rect></g><g fill="none"><path fill="#91d691" d="M209.572,255.763c-14.062-8.687-17.225-20.35-18.576-25.33c1.094,4.778,4.832,9.53,11.212,13.37
					c15.94,9.593,42.331,9.861,58.945,0.596c7.135-3.978,11.306-9.068,12.482-14.339c-1.081,4.133-2.713,10.38-8.944,17.599
					c-2.36,2.734-7.559,7.819-15.87,11.153C236.185,263.882,220.779,262.685,209.572,255.763z" class="color919dd6 svgShape"></path><path fill="#e8e8e8" d="M261.423,141.817c15.539,9.352,15.006,24.255-1.19,33.286
					c-16.197,9.031-41.923,8.771-57.462-0.581c-15.539-9.352-15.006-24.255,1.19-33.286
					C220.157,132.205,245.884,132.465,261.423,141.817z" class="colore4e3ee svgShape"></path><path fill="#cccccc" d="M190.965,230.297l-12.531-54.753c1.461,6.384,6.319,12.559,14.609,17.549
					c20.713,12.466,55.005,12.813,76.594,0.775c9.272-5.17,14.693-11.783,16.22-18.634l-12.221,54.825
					c-1.175,5.272-5.347,10.361-12.482,14.34c-16.615,9.264-43.005,8.997-58.945-0.596
					C195.829,239.962,192.09,235.21,190.965,230.297z" class="colorb7b6e3 svgShape"></path><path fill="#e0e0e0" d="M197.299,140.363c21.161-11.486,51.123-11.145,71.244,0.81c-1.795-1.08-4.304-0.996-7.12,0.575
				c-15.539-9.352-41.266-9.613-57.463-0.581c-16.197,9.031-16.73,23.934-1.19,33.286c15.539,9.353,41.266,9.613,57.462,0.581
				c16.196-9.031,16.729-23.934,1.19-33.286c2.816-1.571,5.325-1.655,7.12-0.575c4.213,2.724,10.58,6.841,15.01,15.503
				c4.133,8.082,2.877,15.331,2.341,18.426c-1.574,7.031-6.993,13.637-16.257,18.802c-21.589,12.038-55.881,11.691-76.594-0.775
				c-8.282-4.985-13.139-11.152-14.606-17.53c-0.518-2.784-1.007-5.414-0.511-9.532c0.621-5.165,2.68-9.058,2.768-9.221
				C182.236,153.966,186.331,146.317,197.299,140.363z" class="colordad9e8 svgShape"></path></g><g fill="none"><path fill="#eeeeee" d="M254.65,74.235c11.919,7.174,11.51,18.605-0.913,25.532c-12.424,6.928-32.157,6.728-44.076-0.446
					c-11.919-7.174-11.51-18.605,0.913-25.532C222.997,66.862,242.731,67.062,254.65,74.235z" class="colorebebf1 svgShape"></path><path fill="#cccccc" d="M193.915,159.77c-19.185-11.873-23.397-27.584-23.552-38.674
					c0.025,8.906,5.745,17.809,17.23,24.721c23.663,14.242,62.84,14.638,87.505,0.885c12.694-7.078,19.069-16.524,19.042-25.968
					c-0.214,5.798-0.533,8.805-2.864,15.298c-1.828,5.092-5.093,9.422-6.847,11.749c-0.82,1.087-8.429,10.783-23.123,16.506
					C235.829,174.21,209.102,169.168,193.915,159.77z" class="colorb7b6e3 svgShape"></path><path fill="#e8e8e8" d="M195.685,72c11.236-6.116,23.85-9.129,37.495-8.954c14.013,0.179,26.59,3.514,37.383,9.911
				c-4.04-2.432-9.681-2.197-15.913,1.279c-11.919-7.173-31.653-7.373-44.076-0.446c-12.423,6.928-12.833,18.358-0.913,25.532
				c11.919,7.173,31.653,7.373,44.076,0.446c12.423-6.927,12.832-18.358,0.913-25.532c6.232-3.475,11.872-3.71,15.913-1.279
				c5.689,3.673,23,14.848,23.552,38.674c0.027,9.444-6.349,18.89-19.043,25.968c-24.664,13.753-63.842,13.356-87.505-0.885
				c-11.485-6.913-17.205-15.816-17.23-24.722c0.128-3.462,0.273-7.386,1.787-12.182c1.793-5.68,3.339-8.118,5.898-12.156
				C180.044,84.464,186.337,77.088,195.685,72z" class="colore4e3ee svgShape"></path><path fill="#364f6b" d="M244.4,146.94c-20.041,2.355-41.636-1.081-56.832-10.227
					c-11.421-6.874-17.14-15.715-17.229-24.571c-0.016-5.752,2.348-11.062,6.337-15.31c0.08,7.942,5.21,15.873,15.453,22.038
					c13.63,8.203,32.999,11.285,50.974,9.173C243.9,134.54,244.383,141.188,244.4,146.94z" class="color042f8f svgShape"></path><path fill="#e0e0e0" d="M170.363,121.096l-0.026-9.105c0.025,8.906,5.745,17.809,17.23,24.722
					c23.663,14.241,62.84,14.638,87.505,0.885c12.694-7.078,19.069-16.524,19.043-25.968l0.026,9.105
					c0.027,9.443-6.349,18.889-19.042,25.968c-24.664,13.753-63.842,13.356-87.505-0.885
					C176.108,138.905,170.389,130.002,170.363,121.096z" class="colordad9e8 svgShape"></path><path fill="#59e643" d="M180.394 121.36c-1.217 3.438-3.301 3.668-4.744.524-2.41-5.25.045-11.593 3.171-10.688.569.165.867.492 1.184.839C182.009 114.882 180.93 119.846 180.394 121.36zM215.474 136.924c-.915 5.163-7.401 6.031-10.677 1.43-3.421-4.804.328-10.338 5.116-9.743.176.022.409.073.584.105C214.716 129.938 215.948 134.251 215.474 136.924z" class="color05d4f5 svgShape"></path></g><path fill="#31f213" d="M273.273,114.726c0-3.056-2.146-4.295-4.792-2.767c-2.647,1.528-4.792,5.244-4.792,8.301
			c0,3.056,2.146,4.295,4.793,2.767C271.127,121.499,273.273,117.783,273.273,114.726z" class="color1393f2 svgShape"></path><g fill="none"><path fill="#31f213" d="M269.104,117.56l34.935-26.219L269.104,117.56z" class="color1393f2 svgShape"></path><path fill="#171f29" d="M269.105,119.066c-0.458,0-0.91-0.208-1.205-0.602c-0.499-0.665-0.365-1.609,0.3-2.109
				l34.934-26.219c0.665-0.499,1.609-0.365,2.108,0.301c0.499,0.665,0.365,1.609-0.301,2.108l-34.935,26.218
				C269.737,118.968,269.42,119.066,269.105,119.066z" class="color171c29 svgShape"></path></g><path fill="#31f213" d="M312.907 89.46c0-4.485-3.636-8.121-8.122-8.121s-8.122 3.636-8.122 8.121c0 4.486 3.636 8.122 8.122 8.122S312.907 93.946 312.907 89.46zM183.373 48.587c0-4.486-3.636-8.122-8.122-8.122-4.485 0-8.121 3.636-8.121 8.122s3.636 8.122 8.121 8.122C179.737 56.708 183.373 53.072 183.373 48.587z" class="color1393f2 svgShape"></path><g fill="none"><defs fill="none"><path id="u" d="M280.46,172.615
							l5.914,3.437c-2.51-1.459-5.987-1.254-9.824,0.962l-5.914-3.437C274.473,171.361,277.949,171.156,280.46,172.615z" enable-background="new"></path></defs><use fill="#59e643" overflow="visible" xlink:href="#u" class="color05d4f5 svgShape"></use><clipPath id="v" fill="none"><use overflow="visible" xlink:href="#u"></use></clipPath><g clip-path="url(#v)" fill="none"><path fill="#59e643" d="M276.55,177.013l-5.914-3.437c3.837-2.215,7.313-2.421,9.823-0.962l5.914,3.437
							C283.863,174.593,280.387,174.798,276.55,177.013z" class="color05d4f5 svgShape"></path></g><g fill="none"><path fill="#59e643" d="M277.92,182.79c5.224-3.019,9.484-0.589,9.498,5.417c0.02,6.002-4.211,13.33-9.436,16.343
						c-5.225,3.02-9.488,0.594-9.501-5.41C268.46,193.139,272.696,185.803,277.92,182.79z" class="color05d4f5 svgShape"></path></g><g fill="none"><defs fill="none"><path id="w" d="
							M266.811,209.713l-5.914-3.437c-2.479-1.44-4.015-4.502-4.028-8.855c-0.025-8.764,6.14-19.442,13.767-23.846l5.914,3.437
							c-7.627,4.403-13.792,15.082-13.767,23.846C262.795,205.211,264.332,208.273,266.811,209.713z" enable-background="new"></path></defs><use fill="#59e643" overflow="visible" xlink:href="#w" class="color05d4f5 svgShape"></use><clipPath id="x" fill="none"><use overflow="visible" xlink:href="#w"></use></clipPath><g clip-path="url(#x)" fill="none"><path fill="#59e643" d="M266.811,209.713l-5.914-3.437c-2.201-1.279-3.66-3.837-3.967-7.442l5.913,3.437
							C263.151,205.876,264.61,208.434,266.811,209.713z" class="color05d4f5 svgShape"></path><path fill="#59e643" d="M262.843,202.271l-5.913-3.437c-0.039-0.454-0.06-0.925-0.061-1.413
							c-0.021-7.557,4.559-16.536,10.711-21.69l5.913,3.437c-6.151,5.154-10.732,14.133-10.71,21.69
							C262.784,201.346,262.805,201.817,262.843,202.271z" class="color05d4f5 svgShape"></path><path fill="#59e643" d="M273.493,179.169l-5.913-3.437c0.982-0.823,2.005-1.549,3.056-2.156l5.914,3.437
							C275.499,177.62,274.476,178.345,273.493,179.169z" class="color05d4f5 svgShape"></path></g></g><g fill="none"><defs fill="none"><path id="y" d="M277.92,182.79
							l-1.37-5.777c7.627-4.403,13.828-0.865,13.853,7.899c0.025,8.764-6.137,19.435-13.764,23.839
							c-7.627,4.403-13.832,0.871-13.857-7.892c-0.025-8.764,6.14-19.442,13.767-23.846L277.92,182.79
							c-5.224,3.013-9.46,10.349-9.439,16.35c0.014,6.004,4.276,8.43,9.501,5.41c5.225-3.014,9.456-10.342,9.436-16.343
							C287.404,182.201,283.144,179.771,277.92,182.79z" enable-background="new"></path></defs><use fill="#59e643" overflow="visible" xlink:href="#y" class="color05d4f5 svgShape"></use><clipPath id="z" fill="none"><use overflow="visible" xlink:href="#y"></use></clipPath><g clip-path="url(#z)" fill="none"><path fill="#2af312" d="M277.92,182.79l-1.37-5.777c7.627-4.403,13.828-0.865,13.853,7.899
							c0.025,8.764-6.137,19.435-13.764,23.839c-7.627,4.403-13.832,0.871-13.857-7.892c-0.025-8.764,6.14-19.442,13.767-23.846
							L277.92,182.79c-5.224,3.013-9.46,10.349-9.439,16.35c0.014,6.004,4.276,8.43,9.501,5.41
							c5.225-3.014,9.456-10.342,9.436-16.343C287.404,182.201,283.144,179.771,277.92,182.79z" class="color12b0f3 svgShape"></path></g></g></g><g fill="none"><defs fill="none"><path id="A" d="
							M280.528,263.851l-8.49-4.934c-0.934-0.543-1.622-1.609-1.889-3.3l8.49,4.934
							C278.907,262.242,279.594,263.308,280.528,263.851z" enable-background="new"></path></defs><use fill="#e0e0e0" overflow="visible" xlink:href="#A" class="colordad9e8 svgShape"></use><clipPath id="B" fill="none"><use overflow="visible" xlink:href="#A"></use></clipPath><g clip-path="url(#B)" fill="none"><path fill="#e0e0e0" d="M280.528,263.851l-8.49-4.934c-0.928-0.54-1.614-1.596-1.883-3.269l8.49,4.934
							C278.915,262.255,279.6,263.311,280.528,263.851z" class="colordad9e8 svgShape"></path><path fill="#e0e0e0" d="M278.645,260.582l-8.49-4.934c-0.002-0.01-0.003-0.02-0.005-0.031l8.49,4.934
							C278.642,260.562,278.643,260.572,278.645,260.582z" class="colordad9e8 svgShape"></path></g><defs fill="none"><path id="C" d="M287.832,175.274l8.49,4.934
							c-2.477-1.439-5.911-1.26-9.757,0.96l-8.49-4.934C281.921,174.014,285.355,173.834,287.832,175.274z"></path></defs><use fill="#e0e0e0" overflow="visible" xlink:href="#C" class="colordad9e8 svgShape"></use><clipPath id="D" fill="none"><use overflow="visible" xlink:href="#C"></use></clipPath><g clip-path="url(#D)" fill="none"><path fill="#e0e0e0" d="M286.566,181.168l-8.49-4.934c3.846-2.22,7.28-2.4,9.757-0.96l8.49,4.934
							C293.846,178.769,290.411,178.948,286.566,181.168z" class="colordad9e8 svgShape"></path></g><g fill="none"><polygon fill="#e0e0e0" points="278.64 260.552 270.149 255.617 261.991 203.859 270.481 208.792" class="colordad9e8 svgShape"></polygon></g><g fill="none"><polygon fill="#eeeeee" points="283.978 182.662 275.487 177.729 278.075 176.234 286.566 181.168" class="colorebebf1 svgShape"></polygon></g><g fill="none"><defs fill="none"><path id="E" d="
							M270.481,208.792l-8.49-4.934c-1.388-8.808,5.036-21.246,13.497-26.13l8.49,4.934
							C275.517,187.547,269.093,199.985,270.481,208.792z" enable-background="new"></path></defs><use fill="#eeeeee" overflow="visible" xlink:href="#E" class="colorebebf1 svgShape"></use><clipPath id="F" fill="none"><use overflow="visible" xlink:href="#E"></use></clipPath><g clip-path="url(#F)" fill="none"><path fill="#eeeeee" d="M270.481,208.792l-8.49-4.934c-0.422-2.678-0.122-5.692,0.738-8.726l8.491,4.934
							C270.359,203.101,270.059,206.114,270.481,208.792z" class="colorebebf1 svgShape"></path><path fill="#eeeeee" d="M271.219 200.066l-8.491-4.934c.967-3.415 2.644-6.857 4.799-9.878l8.49 4.934C273.864 193.209 272.187 196.651 271.219 200.066zM276.018 190.188l-8.49-4.934c1.647-2.309 3.573-4.372 5.674-5.989l8.49 4.934C279.591 185.816 277.665 187.879 276.018 190.188zM281.692 184.199l-8.49-4.934c.742-.571 1.505-1.086 2.286-1.536l8.49 4.934C283.197 183.113 282.434 183.628 281.692 184.199z" class="colorebebf1 svgShape"></path></g></g><g fill="none"><path fill="#d7d7d7" d="M286.566,181.168c8.461-4.885,14.931,0.108,13.597,10.488l-7.836,60.993
						c-0.62,4.822-3.719,8.843-6.824,10.636c-3.106,1.793-6.217,1.357-6.863-2.734l-8.159-51.759
						c-1.388-8.807,5.036-21.245,13.497-26.13L286.566,181.168z" class="colorc4c3ec svgShape"></path></g></g></g></svg></g></svg>